solid ascii
  facet normal -5.773503e-001 1.875923e-001 7.946545e-001
    outer loop
      vertex   -8.090170e-001 -2.628655e-001 4.253253e-001
      vertex   1.669025e-008 1.160264e-008 9.510564e-001
      vertex   -5.000000e-001 6.881910e-001 4.253255e-001
    endloop
  endfacet
  facet normal -1.621688e-007 6.070618e-001 7.946546e-001
    outer loop
      vertex   -5.000000e-001 6.881910e-001 4.253255e-001
      vertex   1.669025e-008 1.160264e-008 9.510564e-001
      vertex   5.000000e-001 6.881910e-001 4.253257e-001
    endloop
  endfacet
  facet normal -3.568221e-001 -4.911235e-001 7.946545e-001
    outer loop
      vertex   1.669025e-008 1.160264e-008 9.510564e-001
      vertex   -8.090170e-001 -2.628655e-001 4.253253e-001
      vertex   2.040958e-008 -8.506508e-001 4.253253e-001
    endloop
  endfacet
  facet normal 3.568219e-001 -4.911235e-001 7.946545e-001
    outer loop
      vertex   1.669025e-008 1.160264e-008 9.510564e-001
      vertex   2.040958e-008 -8.506508e-001 4.253253e-001
      vertex   8.090170e-001 -2.628655e-001 4.253256e-001
    endloop
  endfacet
  facet normal 5.773501e-001 1.875923e-001 7.946547e-001
    outer loop
      vertex   1.669025e-008 1.160264e-008 9.510564e-001
      vertex   8.090170e-001 -2.628655e-001 4.253256e-001
      vertex   5.000000e-001 6.881910e-001 4.253257e-001
    endloop
  endfacet
  facet normal -5.773503e-001 -1.875925e-001 -7.946544e-001
    outer loop
      vertex   -8.090170e-001 2.628656e-001 -4.253253e-001
      vertex   -1.669025e-008 -1.160264e-008 -9.510564e-001
      vertex   -5.000000e-001 -6.881910e-001 -4.253253e-001
    endloop
  endfacet
  facet normal 0.000000e+000 -6.070620e-001 -7.946545e-001
    outer loop
      vertex   -5.000000e-001 -6.881910e-001 -4.253253e-001
      vertex   -1.669025e-008 -1.160264e-008 -9.510564e-001
      vertex   5.000000e-001 -6.881910e-001 -4.253253e-001
    endloop
  endfacet
  facet normal -3.568221e-001 4.911235e-001 -7.946545e-001
    outer loop
      vertex   -1.669025e-008 -1.160264e-008 -9.510564e-001
      vertex   -8.090170e-001 2.628656e-001 -4.253253e-001
      vertex   2.040958e-008 8.506508e-001 -4.253253e-001
    endloop
  endfacet
  facet normal 3.568221e-001 4.911235e-001 -7.946545e-001
    outer loop
      vertex   -1.669025e-008 -1.160264e-008 -9.510564e-001
      vertex   2.040958e-008 8.506508e-001 -4.253253e-001
      vertex   8.090170e-001 2.628656e-001 -4.253253e-001
    endloop
  endfacet
  facet normal 5.773503e-001 -1.875925e-001 -7.946545e-001
    outer loop
      vertex   -1.669025e-008 -1.160264e-008 -9.510564e-001
      vertex   8.090170e-001 2.628656e-001 -4.253253e-001
      vertex   5.000000e-001 -6.881910e-001 -4.253253e-001
    endloop
  endfacet
  facet normal -9.341724e-001 3.035310e-001 1.875925e-001
    outer loop
      vertex   -8.090170e-001 -2.628655e-001 4.253253e-001
      vertex   -5.000000e-001 6.881910e-001 4.253255e-001
      vertex   -8.090170e-001 2.628656e-001 -4.253253e-001
    endloop
  endfacet
  facet normal -3.828286e-008 9.822470e-001 1.875924e-001
    outer loop
      vertex   -5.000000e-001 6.881910e-001 4.253255e-001
      vertex   5.000000e-001 6.881910e-001 4.253257e-001
      vertex   2.040958e-008 8.506508e-001 -4.253253e-001
    endloop
  endfacet
  facet normal 9.341724e-001 3.035310e-001 1.875924e-001
    outer loop
      vertex   5.000000e-001 6.881910e-001 4.253257e-001
      vertex   8.090170e-001 -2.628655e-001 4.253256e-001
      vertex   8.090170e-001 2.628656e-001 -4.253253e-001
    endloop
  endfacet
  facet normal 5.773502e-001 -7.946545e-001 1.875925e-001
    outer loop
      vertex   8.090170e-001 -2.628655e-001 4.253256e-001
      vertex   2.040958e-008 -8.506508e-001 4.253253e-001
      vertex   5.000000e-001 -6.881910e-001 -4.253253e-001
    endloop
  endfacet
  facet normal -5.773503e-001 -7.946545e-001 1.875925e-001
    outer loop
      vertex   2.040958e-008 -8.506508e-001 4.253253e-001
      vertex   -8.090170e-001 -2.628655e-001 4.253253e-001
      vertex   -5.000000e-001 -6.881910e-001 -4.253253e-001
    endloop
  endfacet
  facet normal -9.341724e-001 -3.035310e-001 -1.875925e-001
    outer loop
      vertex   -5.000000e-001 -6.881910e-001 -4.253253e-001
      vertex   -8.090170e-001 -2.628655e-001 4.253253e-001
      vertex   -8.090170e-001 2.628656e-001 -4.253253e-001
    endloop
  endfacet
  facet normal -5.773503e-001 7.946545e-001 -1.875925e-001
    outer loop
      vertex   -8.090170e-001 2.628656e-001 -4.253253e-001
      vertex   -5.000000e-001 6.881910e-001 4.253255e-001
      vertex   2.040958e-008 8.506508e-001 -4.253253e-001
    endloop
  endfacet
  facet normal 5.773503e-001 7.946545e-001 -1.875924e-001
    outer loop
      vertex   2.040958e-008 8.506508e-001 -4.253253e-001
      vertex   5.000000e-001 6.881910e-001 4.253257e-001
      vertex   8.090170e-001 2.628656e-001 -4.253253e-001
    endloop
  endfacet
  facet normal 0.000000e+000 -9.822469e-001 -1.875925e-001
    outer loop
      vertex   5.000000e-001 -6.881910e-001 -4.253253e-001
      vertex   2.040958e-008 -8.506508e-001 4.253253e-001
      vertex   -5.000000e-001 -6.881910e-001 -4.253253e-001
    endloop
  endfacet
  facet normal 9.341724e-001 -3.035310e-001 -1.875925e-001
    outer loop
      vertex   8.090170e-001 2.628656e-001 -4.253253e-001
      vertex   8.090170e-001 -2.628655e-001 4.253256e-001
      vertex   5.000000e-001 -6.881910e-001 -4.253253e-001
    endloop
  endfacet
endsolid