400 0 1 0           
30 Autodesk Inventor 12.0.0.25400 18 ASM 13.0.0.5500 NT 24 Sun Nov 06 22:14:12 2011 
1 9.9999999999999995e-007 1e-010 
body $-1 $1 $-1 $-1 #
lump $-1 $-1 $2 $0 #
shell $-1 $-1 $-1 $3 $-1 $1 #
face $4 $5 $6 $2 $-1 $7 reversed single #
color-adesk-attrib $-1 $-1 $-1 $3 1 #
face $8 $9 $10 $2 $-1 $11 reversed single #
loop $-1 $-1 $12 $3 #
plane-surface $-1 -0.12939884961389761 -0.039185670747407655 0.86629312417530913 0.57735027671063033 -0.18759248062997386 -0.79465446528239658 0.11026409513196132 0.98224694512688271 -0.15176550370106145 forward_v I I I I #
color-adesk-attrib $-1 $-1 $-1 $5 1 #
face $13 $14 $15 $2 $-1 $16 reversed single #
loop $-1 $-1 $17 $5 #
plane-surface $-1 2.0409578027624782e-008 -0.081229912028760523 1.0131105607828517 3.7480950836894038e-017 -0.60706200095157614 -0.79465447019485691 1.0000000000000002 8.1828826603420944e-017 -1.5345311495583853e-017 forward_v I I I I #
coedge $-1 $18 $19 $20 $21 forward $6 $-1 #
color-adesk-attrib $-1 $-1 $-1 $9 1 #
face $22 $23 $24 $2 $-1 $25 reversed single #
loop $-1 $-1 $20 $9 #
plane-surface $-1 -0.031830480314935634 -0.12504083892426368 0.85948413568905024 0.35682209926192587 0.49112348624868229 -0.79465445995932893 0.93417235533830301 -0.18759248479005503 0.30353100364210028 forward_v I I I I #
coedge $-1 $26 $27 $18 $28 reversed $10 $-1 #
coedge $-1 $19 $12 $17 $28 forward $6 $-1 #
coedge $-1 $12 $18 $29 $30 forward $6 $-1 #
coedge $-1 $31 $32 $12 $21 reversed $15 $-1 #
edge $33 $34 $35 $20 $36 forward #
color-adesk-attrib $-1 $-1 $-1 $14 1 #
face $37 $38 $39 $2 $-1 $40 reversed single #
loop $-1 $-1 $41 $14 #
plane-surface $-1 1.9922589800103203e-008 -0.081229912537210694 0.90085356491706403 -0.35682209918092317 0.49112347201252915 -0.79465446879412815 0.93417235536924337 0.18759247930352937 -0.30353100693773533 forward_v I I I I #
coedge $-1 $27 $17 $42 $43 forward $10 $-1 #
coedge $-1 $17 $26 $44 $45 forward $10 $-1 #
edge $46 $35 $47 $17 $48 forward #
coedge $-1 $49 $50 $19 $30 reversed $51 $-1 #
edge $52 $47 $34 $29 $53 forward #
coedge $-1 $32 $20 $54 $55 forward $15 $-1 #
coedge $-1 $20 $31 $41 $56 forward $15 $-1 #
color-adesk-attrib $-1 $-1 $-1 $21 1 #
vertex $-1 $55 $57 #
vertex $-1 $43 $58 #
straight-curve $-1 -0.10772540724198089 -0.035002096585209592 0.88105219419644598 0.80901699164527474 0.26286554111075017 0.52573112379407627 I I #
color-adesk-attrib $-1 $-1 $-1 $23 1 #
face $59 $60 $61 $2 $-1 $62 reversed single #
loop $-1 $-1 $63 $23 #
plane-surface $-1 -0.20879395256815242 -0.14907118848156034 1.1379450565352875 -0.57735026998543204 -0.18759247710571583 -0.79465447100050368 -0.11026409170049857 0.98224694579995619 -0.15176550183794266 forward_v I I I I #
coedge $-1 $64 $65 $32 $56 reversed $24 $-1 #
coedge $-1 $63 $66 $26 $43 reversed $39 $-1 #
edge $67 $35 $68 $42 $69 forward #
coedge $-1 $70 $71 $27 $45 reversed $72 $-1 #
edge $73 $68 $47 $44 $74 forward #
color-adesk-attrib $-1 $-1 $-1 $28 1 #
vertex $-1 $45 $75 #
straight-curve $-1 0.0015576647313242378 -0.0021439070660882469 0.95269422862765163 -0.49999998737333562 0.68819096421264758 -0.52573111892176483 I I #
coedge $-1 $50 $29 $76 $77 reversed $51 $-1 #
coedge $-1 $29 $49 $78 $79 reversed $51 $-1 #
loop $-1 $-1 $29 $80 #
color-adesk-attrib $-1 $-1 $-1 $30 1 #
straight-curve $-1 -0.6545084643533815 0.21266273877184008 0.42532541684466385 -0.30901699437494085 -0.95105651629513221 -2.1204743635413017e-007 I I #
coedge $-1 $81 $82 $31 $55 reversed $83 $-1 #
edge $84 $34 $85 $54 $86 forward #
edge $87 $85 $35 $41 $88 forward #
point $-1 -0.80901697070435863 -0.26286554757809816 0.42532531082093872 #
point $-1 1.6690245630002213e-008 1.1602640626051654e-008 0.9510564204912465 #
color-adesk-attrib $-1 $-1 $-1 $38 1 #
face $89 $90 $91 $2 $-1 $92 reversed single #
loop $-1 $-1 $93 $38 #
plane-surface $-1 -0.12939888299438887 0.039185670747407655 -0.86629312417530913 0.57735027671063044 0.18759248062997386 0.79465446528239647 0.11026409513196132 -0.98224694512688271 0.15176550370106145 forward_v I I I I #
coedge $-1 $66 $42 $65 $94 reversed $39 $-1 #
coedge $-1 $65 $41 $95 $96 forward $24 $-1 #
coedge $-1 $41 $64 $63 $94 forward $24 $-1 #
coedge $-1 $42 $63 $97 $98 forward $39 $-1 #
color-adesk-attrib $-1 $-1 $-1 $43 1 #
vertex $-1 $98 $99 #
straight-curve $-1 -0.098441257336487481 -0.13549277827293341 1.05456370223624 0.49999999879726975 0.6881909589714158 -0.52573111491781999 I I #
coedge $-1 $71 $44 $100 $101 reversed $72 $-1 #
coedge $-1 $44 $70 $102 $103 reversed $72 $-1 #
loop $-1 $-1 $44 $104 #
color-adesk-attrib $-1 $-1 $-1 $45 1 #
straight-curve $-1 1.1691346557540786e-008 0.68819093155272182 0.42532551427631193 -0.99999999999999989 -8.93908772616764e-009 1.7184108962295323e-008 I I #
point $-1 -0.49999997757500581 0.68819096488350706 0.42532552286837416 #
coedge $-1 $102 $105 $49 $77 forward $106 $-1 #
edge $107 $108 $47 $76 $109 forward #
coedge $-1 $110 $111 $50 $79 forward $112 $-1 #
edge $113 $34 $108 $78 $114 forward #
face $115 $104 $51 $2 $-1 $116 reversed single #
coedge $-1 $82 $54 $111 $117 reversed $83 $-1 #
coedge $-1 $54 $81 $118 $119 reversed $83 $-1 #
loop $-1 $-1 $54 $120 #
color-adesk-attrib $-1 $-1 $-1 $55 1 #
vertex $-1 $96 $121 #
straight-curve $-1 -0.40450858120853367 -0.55675815952667673 0.42532523670262756 0.8090169334645978 -0.58778533612834949 -1.4823665201283942e-007 I I #
color-adesk-attrib $-1 $-1 $-1 $56 1 #
straight-curve $-1 2.1489357848736297e-008 -0.10633133961094644 0.88534002908470855 -2.3477699438730317e-008 0.85065080316553698 0.52573112051107129 I I #
color-adesk-attrib $-1 $-1 $-1 $60 1 #
face $122 $123 $124 $2 $-1 $125 reversed single #
loop $-1 $-1 $126 $60 #
plane-surface $-1 -1.2970913232379646e-008 0.081229912028760523 -1.0131105607828517 1.347948421662917e-016 0.60706200095157614 0.79465447019485691 1.0000000000000002 -8.1828826603420944e-017 -1.0711532388665389e-016 forward_v I I I I #
coedge $-1 $127 $128 $129 $130 forward $61 $-1 #
edge $131 $132 $35 $63 $133 forward #
coedge $-1 $134 $135 $64 $96 reversed $136 $-1 #
edge $137 $85 $132 $95 $138 forward #
coedge $-1 $139 $140 $66 $98 reversed $141 $-1 #
edge $142 $132 $68 $97 $143 forward #
point $-1 0.50000001839416275 0.68819096488350706 0.42532572694299803 #
coedge $-1 $144 $145 $70 $101 forward $146 $-1 #
edge $147 $148 $68 $100 $149 forward #
coedge $-1 $105 $76 $71 $103 forward $106 $-1 #
edge $150 $47 $148 $102 $151 forward #
face $152 $153 $72 $2 $-1 $154 reversed single #
coedge $-1 $76 $102 $155 $156 forward $106 $-1 #
loop $-1 $-1 $76 $157 #
color-adesk-attrib $-1 $-1 $-1 $77 1 #
vertex $-1 $77 $158 #
straight-curve $-1 -0.65623163840857324 0.47315653150699799 -0.0047433757270854216 0.3090169778190241 0.42532538138874565 0.85065082575996787 I I #
coedge $-1 $111 $78 $128 $159 forward $112 $-1 #
coedge $-1 $78 $110 $81 $117 forward $112 $-1 #
loop $-1 $-1 $111 $160 #
color-adesk-attrib $-1 $-1 $-1 $79 1 #
straight-curve $-1 -0.80901697070435863 -0.069722699962866855 0.11281362105611549 0 0.52573111499266545 -0.85065080657609982 I I #
color-adesk-attrib $-1 $-1 $-1 $80 1 #
plane-surface $-1 -0.60530318664914085 0.19667491448705124 0.69622650502335159 0.93417236785148738 -0.30353096016588282 -0.18759249282293439 0.17841106505491161 -0.05796926107425205 0.98224694279823432 forward_v I I I I #
edge $161 $162 $34 $111 $163 forward #
coedge $-1 $164 $165 $82 $119 forward $166 $-1 #
edge $167 $85 $162 $118 $168 forward #
face $169 $160 $83 $2 $-1 $170 reversed single #
point $-1 2.0409578027624782e-008 -0.85065079750130945 0.42532530518209349 #
color-adesk-attrib $-1 $-1 $-1 $90 1 #
face $171 $172 $173 $2 $-1 $174 reversed single #
loop $-1 $-1 $129 $90 #
plane-surface $-1 -0.031830513695426894 0.12504083892426368 -0.85948413568905024 0.35682209926192598 -0.49112348624868229 0.79465445995932893 0.93417235533830301 0.18759248479005503 -0.30353100364210039 forward_v I I I I #
coedge $-1 $175 $176 $127 $177 reversed $91 $-1 #
coedge $-1 $128 $93 $126 $177 forward $61 $-1 #
coedge $-1 $93 $127 $110 $159 reversed $61 $-1 #
coedge $-1 $155 $178 $93 $130 reversed $124 $-1 #
edge $179 $108 $180 $129 $181 forward #
color-adesk-attrib $-1 $-1 $-1 $94 1 #
vertex $-1 $98 $182 #
straight-curve $-1 -0.072908435088772108 0.023689402463968893 0.99843520483084713 -0.80901699551641038 0.26286554374155513 0.52573111652160875 I I #
coedge $-1 $135 $95 $165 $183 reversed $136 $-1 #
coedge $-1 $95 $134 $184 $185 reversed $136 $-1 #
loop $-1 $-1 $95 $186 #
color-adesk-attrib $-1 $-1 $-1 $96 1 #
straight-curve $-1 0.40450853867494813 -0.55675820816164301 0.42532522280037649 0.80901701192933773 0.58778522813091505 1.2043215240281165e-007 I I #
coedge $-1 $140 $97 $187 $188 reversed $141 $-1 #
coedge $-1 $97 $139 $144 $189 reversed $141 $-1 #
loop $-1 $-1 $97 $153 #
color-adesk-attrib $-1 $-1 $-1 $98 1 #
straight-curve $-1 0.65450849900912378 0.2126628012984533 0.42532539435038547 -0.30901707699549502 0.95105648945008059 2.2266779630633774e-007 I I #
coedge $-1 $145 $100 $140 $189 forward $146 $-1 #
coedge $-1 $100 $144 $190 $191 forward $146 $-1 #
loop $-1 $-1 $100 $192 #
color-adesk-attrib $-1 $-1 $-1 $101 1 #
vertex $-1 $101 $193 #
straight-curve $-1 0.24721177092073002 0.77032684546382435 -0.0047433127123950704 0.50000001216048873 -0.16245985206763569 0.85065080044967545 I I #
color-adesk-attrib $-1 $-1 $-1 $103 1 #
straight-curve $-1 -0.31631011946375237 0.74787541778207989 0.11281368369019598 0.50000001551196593 0.16245985315659631 -0.85065079827175349 I I #
color-adesk-attrib $-1 $-1 $-1 $104 1 #
face $194 $186 $141 $2 $-1 $195 reversed single #
plane-surface $-1 1.680902350642555e-008 0.6364534523342622 0.6962264858329853 5.556782276167698e-009 -0.98224694808464796 -0.18759246514291283 1.0000000000000002 5.4581324319365857e-009 1.042410485448745e-009 forward_v I I I I #
coedge $-1 $178 $129 $105 $156 reversed $124 $-1 #
edge $196 $148 $108 $105 $197 forward #
face $198 $192 $106 $2 $-1 $199 reversed single #
point $-1 -0.80901697070435863 0.26286556242190434 -0.42532530001132096 #
edge $200 $108 $162 $110 $201 forward #
face $202 $157 $112 $2 $-1 $203 reversed single #
color-adesk-attrib $-1 $-1 $-1 $117 1 #
vertex $-1 $117 $204 #
straight-curve $-1 -0.65278532513708609 -0.47789995994235224 -0.0047434157797996875 -0.30901704539477975 0.42532547439879542 0.85065075470660734 I I #
coedge $-1 $165 $118 $176 $205 forward $166 $-1 #
coedge $-1 $118 $164 $134 $183 forward $166 $-1 #
loop $-1 $-1 $165 $206 #
color-adesk-attrib $-1 $-1 $-1 $119 1 #
straight-curve $-1 -0.18368976751107807 -0.79096636740904114 0.11281364539729899 -0.50000008495016723 0.16245987571843584 -0.85065075314806871 I I #
color-adesk-attrib $-1 $-1 $-1 $120 1 #
plane-surface $-1 -0.37409798333766814 -0.51490163986786197 0.69622649668560199 0.57735032911374584 0.79465442890951177 -0.18759247342776625 0.11026410075230489 0.15176549071522402 0.98224694650238198 forward_v I I I I #
color-adesk-attrib $-1 $-1 $-1 $123 1 #
face $207 $80 $208 $2 $-1 $209 reversed single #
loop $-1 $-1 $210 $123 #
plane-surface $-1 -1.3457901459901224e-008 0.081229912537210694 -0.90085356491706403 -0.35682209918092306 -0.49112347201252915 0.79465446879412815 0.93417235536924337 -0.18759247930352937 0.30353100693773521 forward_v I I I I #
coedge $-1 $176 $126 $211 $212 forward $91 $-1 #
coedge $-1 $126 $175 $164 $205 reversed $91 $-1 #
edge $213 $180 $162 $126 $214 forward #
coedge $-1 $129 $155 $210 $215 forward $124 $-1 #
color-adesk-attrib $-1 $-1 $-1 $130 1 #
vertex $-1 $212 $216 #
straight-curve $-1 -0.10772544062247216 0.03500209658520604 -0.88105219419644598 0.80901699164527452 -0.26286554111075011 -0.52573112379407627 I I #
point $-1 0.8090170115235138 -0.26286554757809816 0.42532558092909978 #
edge $217 $218 $85 $165 $219 forward #
coedge $-1 $220 $187 $135 $185 forward $221 $-1 #
edge $222 $132 $218 $184 $223 forward #
face $224 $120 $136 $2 $-1 $225 reversed single #
coedge $-1 $184 $220 $139 $188 forward $221 $-1 #
edge $226 $227 $132 $187 $228 forward #
edge $229 $68 $227 $144 $230 forward #
coedge $-1 $231 $210 $145 $191 reversed $173 $-1 #
edge $232 $227 $148 $145 $233 forward #
face $234 $206 $146 $2 $-1 $235 reversed single #
point $-1 2.0409578027624782e-008 0.85065081234511219 -0.42532530001132096 #
color-adesk-attrib $-1 $-1 $-1 $153 1 #
plane-surface $-1 0.60530324272188996 0.1966749762214875 0.69622646984805792 -0.93417235334673554 -0.30353104307961287 -0.18759243089640973 -0.17841100124093728 -0.057969257075026911 0.98224695462514733 forward_v I I I I #
color-adesk-attrib $-1 $-1 $-1 $156 1 #
straight-curve $-1 -0.40450846404470486 0.5567581943404073 -0.42532530001132102 -0.80901700553927591 -0.58778523692609341 0 I I #
color-adesk-attrib $-1 $-1 $-1 $157 1 #
plane-surface $-1 -0.49857999316056578 0.68623655141827211 0.41267623172101703 0.57735025441265697 -0.79465448369367098 0.18759247126466871 -0.11026408516785464 0.15176549936425493 0.98224694691549685 forward_v I I I I #
color-adesk-attrib $-1 $-1 $-1 $159 1 #
straight-curve $-1 -0.65450848356102864 -0.2126627228048257 -0.42532530001132096 0.30901702846169971 -0.95105650521969598 0 I I #
color-adesk-attrib $-1 $-1 $-1 $160 1 #
plane-surface $-1 -0.80671943242946331 -0.2621190641058036 0.4126762034613341 0.9341723442092853 0.30353103132601877 0.18759249541677331 -0.17841106309651825 -0.057969275495406293 0.98224694230285514 forward_v I I I I #
point $-1 -0.49999997757500581 -0.68819095003970443 -0.42532530001132096 #
edge $236 $162 $218 $164 $237 forward #
face $238 $239 $166 $2 $-1 $240 reversed single #
color-adesk-attrib $-1 $-1 $-1 $172 1 #
loop $-1 $-1 $241 $172 #
plane-surface $-1 -0.20879398594864368 0.14907118848155679 -1.1379450565352875 -0.57735026998543193 0.18759247710571583 0.79465447100050379 -0.11026409170049857 -0.98224694579995619 0.15176550183794266 forward_v I I I I #
coedge $-1 $190 $231 $178 $215 reversed $173 $-1 #
coedge $-1 $241 $242 $175 $212 reversed $208 $-1 #
edge $243 $180 $218 $211 $244 forward #
color-adesk-attrib $-1 $-1 $-1 $177 1 #
straight-curve $-1 0.001557631350832978 0.0021439070660882469 -0.95269422862765163 -0.49999998737333551 -0.68819096421264758 0.52573111892176505 I I #
edge $245 $148 $180 $210 $246 forward #
point $-1 -1.6690245630002213e-008 -1.1602640626051654e-008 -0.9510564204912465 #
color-adesk-attrib $-1 $-1 $-1 $183 1 #
vertex $-1 $183 $247 #
straight-curve $-1 0.25278813209386725 -0.76851496104156081 -0.0047434169313226877 -0.50000008495016723 -0.16245987571843545 0.85065075314806882 I I #
coedge $-1 $187 $184 $242 $248 forward $221 $-1 #
loop $-1 $-1 $187 $239 #
color-adesk-attrib $-1 $-1 $-1 $185 1 #
straight-curve $-1 0.69549043009734579 -0.4191214817459753 0.11281368466616516 -0.30901697439264258 -0.42532537667273618 -0.85065082936267822 I I #
color-adesk-attrib $-1 $-1 $-1 $186 1 #
plane-surface $-1 0.37409794796050916 -0.51490167378801044 0.69622650257736718 -0.5773502257148323 0.79465450079782729 -0.18759248713311596 -0.11026408935450296 0.15176551593695609 0.98224694388489309 forward_v I I I I #
color-adesk-attrib $-1 $-1 $-1 $188 1 #
vertex $-1 $191 $249 #
straight-curve $-1 0.8090170115235138 0.0029316520525632943 -0.0047433606203548069 0 -0.52573107812320541 0.85065082936267844 I I #
color-adesk-attrib $-1 $-1 $-1 $189 1 #
straight-curve $-1 0.61352662582243245 0.53193499492680385 0.11281370545984672 0.30901693601062497 -0.4253253238444219 -0.85065086971991233 I I #
coedge $-1 $210 $190 $241 $250 forward $173 $-1 #
color-adesk-attrib $-1 $-1 $-1 $191 1 #
straight-curve $-1 0.40450847525051797 0.55675818738350469 -0.42532530001132102 -0.80901702250903074 0.58778521356922775 0 I I #
color-adesk-attrib $-1 $-1 $-1 $192 1 #
plane-surface $-1 0.49857999392094682 0.68623653794546535 0.41267625419453247 -0.57735023346396019 -0.7946545031059965 0.18759245350619164 0.11026407034811231 0.15176548818074292 0.98224695030706399 forward_v I I I I #
color-adesk-attrib $-1 $-1 $-1 $205 1 #
straight-curve $-1 2.0409578027624782e-008 -0.68819095003970443 -0.42532530001132096 1.0000000000000002 -4.241722725797875e-016 0 I I #
color-adesk-attrib $-1 $-1 $-1 $206 1 #
face $251 $-1 $221 $2 $-1 $252 reversed single #
plane-surface $-1 2.0409578027624782e-008 -0.84823502995049094 0.41267618503814407 4.1664191603663206e-016 0.98224693826082454 0.18759251658111553 1.0000000000000002 -4.092452463781054e-016 -7.8158905542489657e-017 forward_v I I I I #
coedge $-1 $242 $211 $231 $250 reversed $208 $-1 #
coedge $-1 $211 $241 $220 $248 reversed $208 $-1 #
color-adesk-attrib $-1 $-1 $-1 $212 1 #
straight-curve $-1 -0.098441290716978741 0.13549277827293341 -1.05456370223624 0.49999999879726981 -0.6881909589714158 0.52573111491781999 I I #
color-adesk-attrib $-1 $-1 $-1 $215 1 #
straight-curve $-1 -1.1891133411268132e-008 0.1063313396109429 -0.88534002908470855 -2.3477699503111683e-008 -0.85065080316553698 -0.52573112051107129 I I #
point $-1 0.50000001839416275 -0.68819095003970443 -0.42532530001132096 #
edge $253 $218 $227 $220 $254 forward #
point $-1 0.8090170115235138 0.26286556242189724 -0.42532530001132096 #
edge $255 $227 $180 $241 $256 forward #
color-adesk-attrib $-1 $-1 $-1 $239 1 #
plane-surface $-1 0.80671944165074039 -0.26211902187296238 0.41267624526308694 -0.93417236190048969 0.30353100005788419 0.18759245791108309 0.17841102950415991 -0.057969257511091797 0.98224694946580471 forward_v I I I I #
color-adesk-attrib $-1 $-1 $-1 $248 1 #
straight-curve $-1 0.6545085149588401 -0.21266269380890185 -0.42532530001132096 0.3090169943749479 0.95105651629515353 0 I I #
color-adesk-attrib $-1 $-1 $-1 $250 1 #
straight-curve $-1 -0.072908468469263368 -0.023689402463968893 -0.99843520483084713 -0.80901699551641049 -0.26286554374155513 -0.52573111652160875 I I #
End-of-ACIS-data 