                                                                        S      1
,,15Hicosahedron.ipt,27HNo Iges File Name specified,23HAutoDesk InventorG      1
 R12.0,37HAutoDesk Inventor Iges Exporter R12.0,32,38,6,99,15,15HicosaheG      2
dron.ipt,1.0D0,2,2HMM,1,.08D0,15H20111106.221545,.01D0,10000.0D0,19HNo AG      3
uthor specified,25HNo Organization specified,11,0,,33HNo Application ProG      4
tocol specified;                                                        G      5
     406       1       0       0       1       0       0       000000000D      1
     406       0       0       1       3                               0D      2
     116       2       0       0       0       0       0       000010000D      3
     116       0       0       2       0                               0D      4
     123       4       0       0       0       0       0       000010200D      5
     123       0       0       1       0                               0D      6
     190       5       0       0       0       0       0       000010000D      7
     190       0       0       1       1                               0D      8
     123       6       0       0       0       0       0       000010200D      9
     123       0       0       1       0                               0D     10
     502       7       0       0       0       0       0       000010000D     11
     502       0       0      13       1                               0D     12
     110      20       0       0       0       0       0       000010000D     13
     110       0       0       2       0                               0D     14
     504      22       0       0       0       0       0       000010001D     15
     504       0       0       7       1                               0D     16
     110      29       0       0       0       0       0       000010000D     17
     110       0       0       2       0                               0D     18
     110      31       0       0       0       0       0       000010000D     19
     110       0       0       2       0                               0D     20
     508      33       0       0       0       0       0       000010000D     21
     508       0       0       1       1                               0D     22
     510      34       0       0       0       0       0       000010001D     23
     510       0       0       1       1                               0D     24
     116      35       0       0       0       0       0       000010000D     25
     116       0       0       2       0                               0D     26
     123      37       0       0       0       0       0       000010200D     27
     123       0       0       1       0                               0D     28
     190      38       0       0       0       0       0       000010000D     29
     190       0       0       1       1                               0D     30
     123      39       0       0       0       0       0       000010200D     31
     123       0       0       1       0                               0D     32
     110      40       0       0       0       0       0       000010000D     33
     110       0       0       2       0                               0D     34
     110      42       0       0       0       0       0       000010000D     35
     110       0       0       2       0                               0D     36
     508      44       0       0       0       0       0       000010000D     37
     508       0       0       1       1                               0D     38
     510      45       0       0       0       0       0       000010001D     39
     510       0       0       1       1                               0D     40
     116      46       0       0       0       0       0       000010000D     41
     116       0       0       2       0                               0D     42
     123      48       0       0       0       0       0       000010200D     43
     123       0       0       1       0                               0D     44
     190      49       0       0       0       0       0       000010000D     45
     190       0       0       1       1                               0D     46
     123      50       0       0       0       0       0       000010200D     47
     123       0       0       1       0                               0D     48
     110      51       0       0       0       0       0       000010000D     49
     110       0       0       2       0                               0D     50
     110      53       0       0       0       0       0       000010000D     51
     110       0       0       2       0                               0D     52
     508      55       0       0       0       0       0       000010000D     53
     508       0       0       1       1                               0D     54
     510      56       0       0       0       0       0       000010001D     55
     510       0       0       1       1                               0D     56
     116      57       0       0       0       0       0       000010000D     57
     116       0       0       2       0                               0D     58
     123      59       0       0       0       0       0       000010200D     59
     123       0       0       1       0                               0D     60
     190      60       0       0       0       0       0       000010000D     61
     190       0       0       1       1                               0D     62
     123      61       0       0       0       0       0       000010200D     63
     123       0       0       1       0                               0D     64
     110      62       0       0       0       0       0       000010000D     65
     110       0       0       2       0                               0D     66
     110      64       0       0       0       0       0       000010000D     67
     110       0       0       2       0                               0D     68
     508      66       0       0       0       0       0       000010000D     69
     508       0       0       1       1                               0D     70
     510      67       0       0       0       0       0       000010001D     71
     510       0       0       1       1                               0D     72
     116      68       0       0       0       0       0       000010000D     73
     116       0       0       1       0                               0D     74
     123      69       0       0       0       0       0       000010200D     75
     123       0       0       1       0                               0D     76
     190      70       0       0       0       0       0       000010000D     77
     190       0       0       1       1                               0D     78
     123      71       0       0       0       0       0       000010200D     79
     123       0       0       1       0                               0D     80
     110      72       0       0       0       0       0       000010000D     81
     110       0       0       2       0                               0D     82
     508      74       0       0       0       0       0       000010000D     83
     508       0       0       1       1                               0D     84
     510      75       0       0       0       0       0       000010001D     85
     510       0       0       1       1                               0D     86
     116      76       0       0       0       0       0       000010000D     87
     116       0       0       2       0                               0D     88
     123      78       0       0       0       0       0       000010200D     89
     123       0       0       1       0                               0D     90
     190      79       0       0       0       0       0       000010000D     91
     190       0       0       1       1                               0D     92
     123      80       0       0       0       0       0       000010200D     93
     123       0       0       1       0                               0D     94
     110      81       0       0       0       0       0       000010000D     95
     110       0       0       2       0                               0D     96
     110      83       0       0       0       0       0       000010000D     97
     110       0       0       3       0                               0D     98
     110      86       0       0       0       0       0       000010000D     99
     110       0       0       2       0                               0D    100
     508      88       0       0       0       0       0       000010000D    101
     508       0       0       1       1                               0D    102
     510      89       0       0       0       0       0       000010001D    103
     510       0       0       1       1                               0D    104
     116      90       0       0       0       0       0       000010000D    105
     116       0       0       2       0                               0D    106
     123      92       0       0       0       0       0       000010200D    107
     123       0       0       2       0                               0D    108
     190      94       0       0       0       0       0       000010000D    109
     190       0       0       1       1                               0D    110
     123      95       0       0       0       0       0       000010200D    111
     123       0       0       1       0                               0D    112
     110      96       0       0       0       0       0       000010000D    113
     110       0       0       3       0                               0D    114
     110      99       0       0       0       0       0       000010000D    115
     110       0       0       2       0                               0D    116
     508     101       0       0       0       0       0       000010000D    117
     508       0       0       1       1                               0D    118
     510     102       0       0       0       0       0       000010001D    119
     510       0       0       1       1                               0D    120
     116     103       0       0       0       0       0       000010000D    121
     116       0       0       2       0                               0D    122
     123     105       0       0       0       0       0       000010200D    123
     123       0       0       1       0                               0D    124
     190     106       0       0       0       0       0       000010000D    125
     190       0       0       1       1                               0D    126
     123     107       0       0       0       0       0       000010200D    127
     123       0       0       1       0                               0D    128
     110     108       0       0       0       0       0       000010000D    129
     110       0       0       2       0                               0D    130
     110     110       0       0       0       0       0       000010000D    131
     110       0       0       2       0                               0D    132
     508     112       0       0       0       0       0       000010000D    133
     508       0       0       1       1                               0D    134
     510     113       0       0       0       0       0       000010001D    135
     510       0       0       1       1                               0D    136
     116     114       0       0       0       0       0       000010000D    137
     116       0       0       2       0                               0D    138
     123     116       0       0       0       0       0       000010200D    139
     123       0       0       1       0                               0D    140
     190     117       0       0       0       0       0       000010000D    141
     190       0       0       1       1                               0D    142
     123     118       0       0       0       0       0       000010200D    143
     123       0       0       1       0                               0D    144
     110     119       0       0       0       0       0       000010000D    145
     110       0       0       2       0                               0D    146
     110     121       0       0       0       0       0       000010000D    147
     110       0       0       2       0                               0D    148
     508     123       0       0       0       0       0       000010000D    149
     508       0       0       1       1                               0D    150
     510     124       0       0       0       0       0       000010001D    151
     510       0       0       1       1                               0D    152
     116     125       0       0       0       0       0       000010000D    153
     116       0       0       2       0                               0D    154
     123     127       0       0       0       0       0       000010200D    155
     123       0       0       1       0                               0D    156
     190     128       0       0       0       0       0       000010000D    157
     190       0       0       1       1                               0D    158
     123     129       0       0       0       0       0       000010200D    159
     123       0       0       1       0                               0D    160
     110     130       0       0       0       0       0       000010000D    161
     110       0       0       2       0                               0D    162
     508     132       0       0       0       0       0       000010000D    163
     508       0       0       1       1                               0D    164
     510     133       0       0       0       0       0       000010001D    165
     510       0       0       1       1                               0D    166
     116     134       0       0       0       0       0       000010000D    167
     116       0       0       1       0                               0D    168
     123     135       0       0       0       0       0       000010200D    169
     123       0       0       1       0                               0D    170
     190     136       0       0       0       0       0       000010000D    171
     190       0       0       1       1                               0D    172
     123     137       0       0       0       0       0       000010200D    173
     123       0       0       1       0                               0D    174
     110     138       0       0       0       0       0       000010000D    175
     110       0       0       2       0                               0D    176
     110     140       0       0       0       0       0       000010000D    177
     110       0       0       2       0                               0D    178
     508     142       0       0       0       0       0       000010000D    179
     508       0       0       1       1                               0D    180
     510     143       0       0       0       0       0       000010001D    181
     510       0       0       1       1                               0D    182
     116     144       0       0       0       0       0       000010000D    183
     116       0       0       1       0                               0D    184
     123     145       0       0       0       0       0       000010200D    185
     123       0       0       1       0                               0D    186
     190     146       0       0       0       0       0       000010000D    187
     190       0       0       1       1                               0D    188
     123     147       0       0       0       0       0       000010200D    189
     123       0       0       1       0                               0D    190
     110     148       0       0       0       0       0       000010000D    191
     110       0       0       2       0                               0D    192
     110     150       0       0       0       0       0       000010000D    193
     110       0       0       2       0                               0D    194
     508     152       0       0       0       0       0       000010000D    195
     508       0       0       1       1                               0D    196
     510     153       0       0       0       0       0       000010001D    197
     510       0       0       1       1                               0D    198
     116     154       0       0       0       0       0       000010000D    199
     116       0       0       1       0                               0D    200
     123     155       0       0       0       0       0       000010200D    201
     123       0       0       1       0                               0D    202
     190     156       0       0       0       0       0       000010000D    203
     190       0       0       1       1                               0D    204
     123     157       0       0       0       0       0       000010200D    205
     123       0       0       1       0                               0D    206
     110     158       0       0       0       0       0       000010000D    207
     110       0       0       2       0                               0D    208
     110     160       0       0       0       0       0       000010000D    209
     110       0       0       2       0                               0D    210
     508     162       0       0       0       0       0       000010000D    211
     508       0       0       1       1                               0D    212
     510     163       0       0       0       0       0       000010001D    213
     510       0       0       1       1                               0D    214
     116     164       0       0       0       0       0       000010000D    215
     116       0       0       1       0                               0D    216
     123     165       0       0       0       0       0       000010200D    217
     123       0       0       1       0                               0D    218
     190     166       0       0       0       0       0       000010000D    219
     190       0       0       1       1                               0D    220
     123     167       0       0       0       0       0       000010200D    221
     123       0       0       1       0                               0D    222
     110     168       0       0       0       0       0       000010000D    223
     110       0       0       2       0                               0D    224
     110     170       0       0       0       0       0       000010000D    225
     110       0       0       2       0                               0D    226
     508     172       0       0       0       0       0       000010000D    227
     508       0       0       1       1                               0D    228
     510     173       0       0       0       0       0       000010001D    229
     510       0       0       1       1                               0D    230
     116     174       0       0       0       0       0       000010000D    231
     116       0       0       2       0                               0D    232
     123     176       0       0       0       0       0       000010200D    233
     123       0       0       1       0                               0D    234
     190     177       0       0       0       0       0       000010000D    235
     190       0       0       1       1                               0D    236
     123     178       0       0       0       0       0       000010200D    237
     123       0       0       1       0                               0D    238
     110     179       0       0       0       0       0       000010000D    239
     110       0       0       2       0                               0D    240
     110     181       0       0       0       0       0       000010000D    241
     110       0       0       2       0                               0D    242
     508     183       0       0       0       0       0       000010000D    243
     508       0       0       1       1                               0D    244
     510     184       0       0       0       0       0       000010001D    245
     510       0       0       1       1                               0D    246
     116     185       0       0       0       0       0       000010000D    247
     116       0       0       2       0                               0D    248
     123     187       0       0       0       0       0       000010200D    249
     123       0       0       1       0                               0D    250
     190     188       0       0       0       0       0       000010000D    251
     190       0       0       1       1                               0D    252
     123     189       0       0       0       0       0       000010200D    253
     123       0       0       1       0                               0D    254
     508     190       0       0       0       0       0       000010000D    255
     508       0       0       1       1                               0D    256
     510     191       0       0       0       0       0       000010001D    257
     510       0       0       1       1                               0D    258
     116     192       0       0       0       0       0       000010000D    259
     116       0       0       1       0                               0D    260
     123     193       0       0       0       0       0       000010200D    261
     123       0       0       1       0                               0D    262
     190     194       0       0       0       0       0       000010000D    263
     190       0       0       1       1                               0D    264
     123     195       0       0       0       0       0       000010200D    265
     123       0       0       1       0                               0D    266
     508     196       0       0       0       0       0       000010000D    267
     508       0       0       1       1                               0D    268
     510     197       0       0       0       0       0       000010001D    269
     510       0       0       1       1                               0D    270
     116     198       0       0       0       0       0       000010000D    271
     116       0       0       1       0                               0D    272
     123     199       0       0       0       0       0       000010200D    273
     123       0       0       1       0                               0D    274
     190     200       0       0       0       0       0       000010000D    275
     190       0       0       1       1                               0D    276
     123     201       0       0       0       0       0       000010200D    277
     123       0       0       1       0                               0D    278
     508     202       0       0       0       0       0       000010000D    279
     508       0       0       1       1                               0D    280
     510     203       0       0       0       0       0       000010001D    281
     510       0       0       1       1                               0D    282
     116     204       0       0       0       0       0       000010000D    283
     116       0       0       2       0                               0D    284
     123     206       0       0       0       0       0       000010200D    285
     123       0       0       2       0                               0D    286
     190     208       0       0       0       0       0       000010000D    287
     190       0       0       1       1                               0D    288
     123     209       0       0       0       0       0       000010200D    289
     123       0       0       1       0                               0D    290
     508     210       0       0       0       0       0       000010000D    291
     508       0       0       1       1                               0D    292
     510     211       0       0       0       0       0       000010001D    293
     510       0       0       1       1                               0D    294
     116     212       0       0       0       0       0       000010000D    295
     116       0       0       1       0                               0D    296
     123     213       0       0       0       0       0       000010200D    297
     123       0       0       1       0                               0D    298
     190     214       0       0       0       0       0       000010000D    299
     190       0       0       1       1                               0D    300
     123     215       0       0       0       0       0       000010200D    301
     123       0       0       1       0                               0D    302
     508     216       0       0       0       0       0       000010000D    303
     508       0       0       1       1                               0D    304
     510     217       0       0       0       0       0       000010001D    305
     510       0       0       1       1                               0D    306
     514     218       0       0       0       0       0       000010000D    307
     514       0       0       2       1                               0D    308
     186     220       0       0       1       0       0       000000000D    309
     186       0    -311       1       0                               0D    310
     314     221       0       0       0       0       0       000000200D    311
     314       0       0       1       0                               0D    312
406,2,0,11Hicosahedron;                                                1P      1
116,-.129398849613898D0,-3.91856707474077D-2,.866293124175309D0,       3P      2
0;                                                                     3P      3
123,-.57735027671063D0,.187592480629974D0,.794654465282397D0;          5P      4
190,3,5,9;                                                             7P      5
123,-.110264095131961D0,-.982246945126882D0,.151765503701061D0;        9P      6
502,12,-.809016970704359D0,-.262865547578098D0,                       11P      7
.425325310820939D0,1.66902456300022D-8,1.16026406260517D-8,           11P      8
.951056420491246D0,-.499999977575006D0,.688190964883507D0,            11P      9
.425325522868374D0,.500000018394163D0,.688190964883507D0,             11P     10
.425325726942998D0,2.04095780276248D-8,-.85065079750131D0,            11P     11
.425325305182094D0,.809017011523514D0,-.262865547578098D0,            11P     12
.4253255809291D0,-.809016970704359D0,.262865562421904D0,              11P     13
-.425325300011321D0,-1.66902456300022D-8,-1.16026406260517D-8,        11P     14
-.951056420491246D0,-.499999977575006D0,-.688190950039704D0,          11P     15
-.425325300011321D0,.500000018394163D0,-.688190950039704D0,           11P     16
-.425325300011321D0,2.04095780276248D-8,.850650812345112D0,           11P     17
-.425325300011321D0,.809017011523514D0,.262865562421897D0,            11P     18
-.425325300011321D0;                                                  11P     19
110,-.809016970704359D0,-.262865547578098D0,.425325310820939D0,       13P     20
1.66902456300022D-8,1.16026406260517D-8,.951056420491246D0;           13P     21
504,30,13,11,1,11,2,17,11,2,11,3,19,11,3,11,1,33,11,2,11,4,35,        15P     22
11,4,11,3,49,11,1,11,5,51,11,5,11,2,65,11,5,11,6,67,11,6,11,2,        15P     23
81,11,6,11,4,95,11,7,11,8,97,11,8,11,9,99,11,7,11,9,113,11,8,11,      15P     24
10,115,11,9,11,10,129,11,11,11,7,131,11,11,11,8,145,11,12,11,11,      15P     25
147,11,12,11,8,161,11,10,11,12,175,11,7,11,3,177,11,1,11,7,191,       15P     26
11,11,11,4,193,11,3,11,11,207,11,12,11,6,209,11,4,11,12,223,11,       15P     27
10,11,5,225,11,6,11,10,239,11,9,11,1,241,11,5,11,9;                   15P     28
110,1.66902456300022D-8,1.16026406260517D-8,.951056420491246D0,       17P     29
-.499999977575006D0,.688190964883507D0,.425325522868374D0;            17P     30
110,-.499999977575006D0,.688190964883507D0,.425325522868374D0,        19P     31
-.809016970704359D0,-.262865547578098D0,.425325310820939D0;           19P     32
508,3,0,15,1,1,0,0,15,2,1,0,0,15,3,1,0;                               21P     33
510,7,1,1,21;                                                         23P     34
116,2.04095780276248D-8,-8.12299120287605D-2,1.01311056078285D0,      25P     35
0;                                                                    25P     36
123,-3.7480950836894D-17,.607062000951576D0,.794654470194857D0;       27P     37
190,25,27,31;                                                         29P     38
123,-1.0D0,0.0D0,0.0D0;                                               31P     39
110,1.66902456300022D-8,1.16026406260517D-8,.951056420491246D0,       33P     40
.500000018394163D0,.688190964883507D0,.425325726942998D0;             33P     41
110,.500000018394163D0,.688190964883507D0,.425325726942998D0,         35P     42
-.499999977575006D0,.688190964883507D0,.425325522868374D0;            35P     43
508,3,0,15,2,0,0,0,15,4,1,0,0,15,5,1,0;                               37P     44
510,29,1,1,37;                                                        39P     45
116,-3.18304803149356D-2,-.125040838924264D0,.85948413568905D0,       41P     46
0;                                                                    41P     47
123,-.356822099261926D0,-.491123486248682D0,.794654459959329D0;       43P     48
190,41,43,47;                                                         45P     49
123,-.934172355338303D0,.187592484790055D0,-.3035310036421D0;         47P     50
110,-.809016970704359D0,-.262865547578098D0,.425325310820939D0,       49P     51
2.04095780276248D-8,-.85065079750131D0,.425325305182094D0;            49P     52
110,2.04095780276248D-8,-.85065079750131D0,.425325305182094D0,        51P     53
1.66902456300022D-8,1.16026406260517D-8,.951056420491246D0;           51P     54
508,3,0,15,1,0,0,0,15,6,1,0,0,15,7,1,0;                               53P     55
510,45,1,1,53;                                                        55P     56
116,1.99225898001032D-8,-8.12299125372107D-2,.900853564917064D0,      57P     57
0;                                                                    57P     58
123,.356822099180923D0,-.491123472012529D0,.794654468794128D0;        59P     59
190,57,59,63;                                                         61P     60
123,-.934172355369243D0,-.187592479303529D0,.303531006937735D0;       63P     61
110,2.04095780276248D-8,-.85065079750131D0,.425325305182094D0,        65P     62
.809017011523514D0,-.262865547578098D0,.4253255809291D0;              65P     63
110,.809017011523514D0,-.262865547578098D0,.4253255809291D0,          67P     64
1.66902456300022D-8,1.16026406260517D-8,.951056420491246D0;           67P     65
508,3,0,15,7,0,0,0,15,8,1,0,0,15,9,1,0;                               69P     66
510,61,1,1,69;                                                        71P     67
116,-.208793952568152D0,-.14907118848156D0,1.13794505653529D0,0;      73P     68
123,.577350269985432D0,.187592477105716D0,.794654471000504D0;         75P     69
190,73,75,79;                                                         77P     70
123,.110264091700499D0,-.982246945799956D0,.151765501837943D0;        79P     71
110,.809017011523514D0,-.262865547578098D0,.4253255809291D0,          81P     72
.500000018394163D0,.688190964883507D0,.425325726942998D0;             81P     73
508,3,0,15,9,0,0,0,15,10,1,0,0,15,4,0,0;                              83P     74
510,77,1,1,83;                                                        85P     75
116,-.129398882994389D0,3.91856707474077D-2,-.866293124175309D0,      87P     76
0;                                                                    87P     77
123,-.57735027671063D0,-.187592480629974D0,-.794654465282397D0;       89P     78
190,87,89,93;                                                         91P     79
123,-.110264095131961D0,.982246945126882D0,-.151765503701061D0;       93P     80
110,-.809016970704359D0,.262865562421904D0,-.425325300011321D0,       95P     81
-1.66902456300022D-8,-1.16026406260517D-8,-.951056420491246D0;        95P     82
110,-1.66902456300022D-8,-1.16026406260517D-8,                        97P     83
-.951056420491246D0,-.499999977575006D0,-.688190950039704D0,          97P     84
-.425325300011321D0;                                                  97P     85
110,-.809016970704359D0,.262865562421904D0,-.425325300011321D0,       99P     86
-.499999977575006D0,-.688190950039704D0,-.425325300011321D0;          99P     87
508,3,0,15,11,1,0,0,15,12,1,0,0,15,13,0,0;                           101P     88
510,91,1,1,101;                                                      103P     89
116,-1.29709132323796D-8,8.12299120287605D-2,                        105P     90
-1.01311056078285D0,0;                                               105P     91
123,-1.34794842166292D-16,-.607062000951576D0,                       107P     92
-.794654470194857D0;                                                 107P     93
190,105,107,111;                                                     109P     94
123,-1.0D0,0.0D0,0.0D0;                                              111P     95
110,-1.66902456300022D-8,-1.16026406260517D-8,                       113P     96
-.951056420491246D0,.500000018394163D0,-.688190950039704D0,          113P     97
-.425325300011321D0;                                                 113P     98
110,-.499999977575006D0,-.688190950039704D0,-.425325300011321D0,     115P     99
.500000018394163D0,-.688190950039704D0,-.425325300011321D0;          115P    100
508,3,0,15,12,0,0,0,15,14,1,0,0,15,15,0,0;                           117P    101
510,109,1,1,117;                                                     119P    102
116,-3.18305136954269D-2,.125040838924264D0,-.85948413568905D0,      121P    103
0;                                                                   121P    104
123,-.356822099261926D0,.491123486248682D0,-.794654459959329D0;      123P    105
190,121,123,127;                                                     125P    106
123,-.934172355338303D0,-.187592484790055D0,.3035310036421D0;        127P    107
110,2.04095780276248D-8,.850650812345112D0,-.425325300011321D0,      129P    108
-.809016970704359D0,.262865562421904D0,-.425325300011321D0;          129P    109
110,2.04095780276248D-8,.850650812345112D0,-.425325300011321D0,      131P    110
-1.66902456300022D-8,-1.16026406260517D-8,-.951056420491246D0;       131P    111
508,3,0,15,11,0,0,0,15,16,0,0,0,15,17,1,0;                           133P    112
510,125,1,1,133;                                                     135P    113
116,-1.34579014599012D-8,8.12299125372107D-2,                        137P    114
-.900853564917064D0,0;                                               137P    115
123,.356822099180923D0,.491123472012529D0,-.794654468794128D0;       139P    116
190,137,139,143;                                                     141P    117
123,-.934172355369243D0,.187592479303529D0,-.303531006937735D0;      143P    118
110,.809017011523514D0,.262865562421897D0,-.425325300011321D0,       145P    119
2.04095780276248D-8,.850650812345112D0,-.425325300011321D0;          145P    120
110,.809017011523514D0,.262865562421897D0,-.425325300011321D0,       147P    121
-1.66902456300022D-8,-1.16026406260517D-8,-.951056420491246D0;       147P    122
508,3,0,15,17,0,0,0,15,18,0,0,0,15,19,1,0;                           149P    123
510,141,1,1,149;                                                     151P    124
116,-.208793985948644D0,.149071188481557D0,-1.13794505653529D0,      153P    125
0;                                                                   153P    126
123,.577350269985432D0,-.187592477105716D0,-.794654471000504D0;      155P    127
190,153,155,159;                                                     157P    128
123,.110264091700499D0,.982246945799956D0,-.151765501837943D0;       159P    129
110,.500000018394163D0,-.688190950039704D0,-.425325300011321D0,      161P    130
.809017011523514D0,.262865562421897D0,-.425325300011321D0;           161P    131
508,3,0,15,19,0,0,0,15,20,0,0,0,15,14,0,0;                           163P    132
510,157,1,1,163;                                                     165P    133
116,-.605303186649141D0,.196674914487051D0,.696226505023352D0,0;     167P    134
123,-.934172367851487D0,.303530960165883D0,.187592492822934D0;       169P    135
190,167,169,173;                                                     171P    136
123,-.178411065054912D0,.057969261074252D0,-.982246942798234D0;      173P    137
110,-.809016970704359D0,.262865562421904D0,-.425325300011321D0,      175P    138
-.499999977575006D0,.688190964883507D0,.425325522868374D0;           175P    139
110,-.809016970704359D0,-.262865547578098D0,.425325310820939D0,      177P    140
-.809016970704359D0,.262865562421904D0,-.425325300011321D0;          177P    141
508,3,0,15,3,0,0,0,15,21,0,0,0,15,22,0,0;                            179P    142
510,171,1,1,179;                                                     181P    143
116,1.68090235064255D-8,.636453452334262D0,.696226485832985D0,0;     183P    144
123,-5.5567822761677D-9,.982246948084648D0,.187592465142913D0;       185P    145
190,183,185,189;                                                     187P    146
123,-1.0D0,-5.45813243193658D-9,-1.04241048544874D-9;                189P    147
110,2.04095780276248D-8,.850650812345112D0,-.425325300011321D0,      191P    148
.500000018394163D0,.688190964883507D0,.425325726942998D0;            191P    149
110,-.499999977575006D0,.688190964883507D0,.425325522868374D0,       193P    150
2.04095780276248D-8,.850650812345112D0,-.425325300011321D0;          193P    151
508,3,0,15,5,0,0,0,15,23,0,0,0,15,24,0,0;                            195P    152
510,187,1,1,195;                                                     197P    153
116,.60530324272189D0,.196674976221487D0,.696226469848058D0,0;       199P    154
123,.934172353346736D0,.303531043079613D0,.18759243089641D0;         201P    155
190,199,201,205;                                                     203P    156
123,.178411001240937D0,5.79692570750269D-2,-.982246954625147D0;      205P    157
110,.809017011523514D0,.262865562421897D0,-.425325300011321D0,       207P    158
.809017011523514D0,-.262865547578098D0,.4253255809291D0;             207P    159
110,.500000018394163D0,.688190964883507D0,.425325726942998D0,        209P    160
.809017011523514D0,.262865562421897D0,-.425325300011321D0;           209P    161
508,3,0,15,10,0,0,0,15,25,0,0,0,15,26,0,0;                           211P    162
510,203,1,1,211;                                                     213P    163
116,.374097947960509D0,-.51490167378801D0,.696226502577367D0,0;      215P    164
123,.577350225714832D0,-.794654500797827D0,.187592487133116D0;       217P    165
190,215,217,221;                                                     219P    166
123,.110264089354503D0,-.151765515936956D0,-.982246943884893D0;      221P    167
110,.500000018394163D0,-.688190950039704D0,-.425325300011321D0,      223P    168
2.04095780276248D-8,-.85065079750131D0,.425325305182094D0;           223P    169
110,.809017011523514D0,-.262865547578098D0,.4253255809291D0,         225P    170
.500000018394163D0,-.688190950039704D0,-.425325300011321D0;          225P    171
508,3,0,15,8,0,0,0,15,27,0,0,0,15,28,0,0;                            227P    172
510,219,1,1,227;                                                     229P    173
116,-.374097983337668D0,-.514901639867862D0,.696226496685602D0,      231P    174
0;                                                                   231P    175
123,-.577350329113746D0,-.794654428909512D0,.187592473427766D0;      233P    176
190,231,233,237;                                                     235P    177
123,-.110264100752305D0,-.151765490715224D0,-.982246946502382D0;     237P    178
110,-.499999977575006D0,-.688190950039704D0,-.425325300011321D0,     239P    179
-.809016970704359D0,-.262865547578098D0,.425325310820939D0;          239P    180
110,2.04095780276248D-8,-.85065079750131D0,.425325305182094D0,       241P    181
-.499999977575006D0,-.688190950039704D0,-.425325300011321D0;         241P    182
508,3,0,15,6,0,0,0,15,29,0,0,0,15,30,0,0;                            243P    183
510,235,1,1,243;                                                     245P    184
116,-.806719432429463D0,-.262119064105804D0,.412676203461334D0,      247P    185
0;                                                                   247P    186
123,-.934172344209285D0,-.303531031326019D0,-.187592495416773D0;     249P    187
190,247,249,253;                                                     251P    188
123,.178411063096518D0,5.79692754954063D-2,-.982246942302855D0;      253P    189
508,3,0,15,29,1,0,0,15,22,1,0,0,15,13,1,0;                           255P    190
510,251,1,1,255;                                                     257P    191
116,-.498579993160566D0,.686236551418272D0,.412676231721017D0,0;     259P    192
123,-.577350254412657D0,.794654483693671D0,-.187592471264669D0;      261P    193
190,259,261,265;                                                     263P    194
123,.110264085167855D0,-.151765499364255D0,-.982246946915497D0;      265P    195
508,3,0,15,21,1,0,0,15,24,1,0,0,15,16,1,0;                           267P    196
510,263,1,1,267;                                                     269P    197
116,.498579993920947D0,.686236537945465D0,.412676254194532D0,0;      271P    198
123,.57735023346396D0,.794654503105997D0,-.187592453506192D0;        273P    199
190,271,273,277;                                                     275P    200
123,-.110264070348112D0,-.151765488180743D0,-.982246950307064D0;     277P    201
508,3,0,15,23,1,0,0,15,26,1,0,0,15,18,1,0;                           279P    202
510,275,1,1,279;                                                     281P    203
116,2.04095780276248D-8,-.848235029950491D0,.412676185038144D0,      283P    204
0;                                                                   283P    205
123,-4.16641916036632D-16,-.982246938260825D0,                       285P    206
-.187592516581116D0;                                                 285P    207
190,283,285,289;                                                     287P    208
123,-1.0D0,0.0D0,0.0D0;                                              289P    209
508,3,0,15,27,1,0,0,15,30,1,0,0,15,15,1,0;                           291P    210
510,287,1,1,291;                                                     293P    211
116,.80671944165074D0,-.262119021872962D0,.412676245263087D0,0;      295P    212
123,.93417236190049D0,-.303531000057884D0,-.187592457911083D0;       297P    213
190,295,297,301;                                                     299P    214
123,-.17841102950416D0,5.79692575110918D-2,-.982246949465804D0;      301P    215
508,3,0,15,25,1,0,0,15,28,1,0,0,15,20,1,0;                           303P    216
510,299,1,1,303;                                                     305P    217
514,20,23,1,39,1,55,1,71,1,85,1,103,1,119,1,135,1,151,1,165,1,       307P    218
181,1,197,1,213,1,229,1,245,1,257,1,269,1,281,1,293,1,305,1;         307P    219
186,307,1,0;                                                         309P    220
314,37.5D0,37.5D0,37.5D0,7HDefault;                                  311P    221
S      1G      5D    312P    221                                        T      1
